Topo_ital_20160223_v2.ufo
<glyph name="A" format="1">
  <advance width="553"/>
  <unicode hex="0041"/>
  <outline>
    <contour>
      <point x="477" y="268" type="line"/>
      <point x="160" y="268" type="line"/>
      <point x="160" y="184" type="line"/>
      <point x="477" y="184" type="line"/>
    </contour>
    <contour>
      <point x="109" y="0" type="line"/>
      <point x="462" y="693" type="line"/>
      <point x="454" y="693" type="line"/>
      <point x="420" y="0" type="line"/>
      <point x="520" y="0" type="line"/>
      <point x="555" y="713" type="line"/>
      <point x="371" y="713" type="line"/>
      <point x="-1" y="0" type="line"/>
    </contour>
  </outline>
</glyph>
<glyph name="B" format="1">
  <advance width="607"/>
  <unicode hex="0042"/>
  <outline>
    <contour>
      <point x="275" y="713" type="line"/>
      <point x="258" y="629" type="line"/>
      <point x="459" y="629" type="line"/>
      <point x="541" y="629"/>
      <point x="566" y="602"/>
      <point x="566" y="546" type="curve"/>
      <point x="566" y="457"/>
      <point x="508" y="406"/>
      <point x="389" y="406" type="curve"/>
      <point x="240" y="406" type="line"/>
      <point x="223" y="322" type="line"/>
      <point x="381" y="322" type="line"/>
      <point x="478" y="322"/>
      <point x="517" y="300"/>
      <point x="517" y="227" type="curve"/>
      <point x="517" y="131"/>
      <point x="453" y="84"/>
      <point x="330" y="84" type="curve"/>
      <point x="176" y="84" type="line"/>
      <point x="158" y="0" type="line"/>
      <point x="320" y="0" type="line"/>
      <point x="502" y="0"/>
      <point x="620" y="84"/>
      <point x="620" y="229" type="curve"/>
      <point x="620" y="353"/>
      <point x="520" y="398"/>
      <point x="406" y="398" type="curve"/>
      <point x="487" y="359" type="line"/>
      <point x="583" y="359"/>
      <point x="667" y="463"/>
      <point x="667" y="546" type="curve" smooth="yes"/>
      <point x="667" y="648"/>
      <point x="627" y="713"/>
      <point x="480" y="713" type="curve"/>
    </contour>
    <contour>
      <point x="213" y="0" type="line"/>
      <point x="352" y="713" type="line"/>
      <point x="251" y="713" type="line"/>
      <point x="112" y="0" type="line"/>
    </contour>
  </outline>
</glyph>
<glyph name="C" format="1">
  <advance width="576"/>
  <unicode hex="0043"/>
  <outline>
    <contour>
      <point x="587" y="585" type="line"/>
      <point x="532" y="627"/>
      <point x="471" y="638"/>
      <point x="422" y="638" type="curve"/>
      <point x="262" y="638"/>
      <point x="203" y="421"/>
      <point x="203" y="252" type="curve" smooth="yes"/>
      <point x="203" y="143"/>
      <point x="261" y="74"/>
      <point x="338" y="74" type="curve"/>
      <point x="434" y="74"/>
      <point x="485" y="108"/>
      <point x="551" y="155" type="curve"/>
      <point x="531" y="63" type="line"/>
      <point x="482" y="20"/>
      <point x="406" y="-12"/>
      <point x="320" y="-12" type="curve"/>
      <point x="189" y="-12"/>
      <point x="96" y="91"/>
      <point x="96" y="257" type="curve" smooth="yes"/>
      <point x="96" y="532"/>
      <point x="221" y="725"/>
      <point x="431" y="725" type="curve" smooth="yes"/>
      <point x="502" y="725"/>
      <point x="567" y="709"/>
      <point x="608" y="680" type="curve"/>
    </contour>
  </outline>
</glyph>
<glyph name="K" format="1">
  <advance width="548"/>
  <unicode hex="004B"/>
  <outline>
    <contour>
      <point x="169" y="0" type="line"/>
      <point x="308" y="713" type="line"/>
      <point x="207" y="713" type="line"/>
      <point x="68" y="0" type="line"/>
    </contour>
    <contour>
      <point x="447" y="0" type="line"/>
      <point x="561" y="0" type="line"/>
      <point x="331" y="389" type="line"/>
      <point x="320" y="328" type="line"/>
      <point x="400" y="406"/>
      <point x="578" y="599"/>
      <point x="674" y="713" type="curve"/>
      <point x="550" y="713" type="line"/>
      <point x="486" y="636"/>
      <point x="309" y="448"/>
      <point x="227" y="364" type="curve"/>
    </contour>
  </outline>
</glyph>
<glyph name="N" format="1">
  <advance width="619"/>
  <unicode hex="004E"/>
  <outline>
    <contour>
      <point x="457" y="0" type="line"/>
      <point x="371" y="713" type="line"/>
      <point x="282" y="713" type="line"/>
      <point x="368" y="0" type="line"/>
    </contour>
    <contour>
      <point x="164" y="0" type="line"/>
      <point x="303" y="713" type="line"/>
      <point x="202" y="713" type="line"/>
      <point x="63" y="0" type="line"/>
    </contour>
    <contour>
      <point x="536" y="0" type="line"/>
      <point x="675" y="713" type="line"/>
      <point x="574" y="713" type="line"/>
      <point x="435" y="0" type="line"/>
    </contour>
  </outline>
</glyph>
<glyph name="T" format="1">
  <advance width="499"/>
  <unicode hex="0054"/>
  <outline>
    <contour>
      <point x="163" y="713" type="line"/>
      <point x="146" y="629" type="line"/>
      <point x="577" y="629" type="line"/>
      <point x="594" y="713" type="line"/>
    </contour>
    <contour>
      <point x="293" y="0" type="line"/>
      <point x="432" y="713" type="line"/>
      <point x="331" y="713" type="line"/>
      <point x="192" y="0" type="line"/>
    </contour>
  </outline>
</glyph>
<glyph name="W" format="1">
  <advance width="925"/>
  <unicode hex="0057"/>
  <outline>
    <contour>
      <point x="757" y="713" type="line"/>
      <point x="676" y="25" type="line"/>
      <point x="706" y="25" type="line"/>
      <point x="503" y="633" type="line"/>
      <point x="503" y="633"/>
      <point x="412" y="633"/>
      <point x="412" y="633" type="curve"/>
      <point x="210" y="27" type="line"/>
      <point x="239" y="27" type="line"/>
      <point x="158" y="713" type="line"/>
      <point x="50" y="713" type="line"/>
      <point x="149" y="0" type="line"/>
      <point x="292" y="0" type="line"/>
      <point x="292" y="0"/>
      <point x="496" y="613"/>
      <point x="496" y="613" type="curve"/>
      <point x="419" y="613" type="line"/>
      <point x="623" y="0" type="line"/>
      <point x="766" y="0" type="line"/>
      <point x="865" y="713" type="line"/>
    </contour>
  </outline>
</glyph>
<glyph name="a" format="1">
  <advance width="537"/>
  <unicode hex="0061"/>
  <outline>
    <contour>
      <point x="426" y="288" type="line"/>
      <point x="399" y="136"/>
      <point x="336" y="69"/>
      <point x="256" y="69" type="curve" smooth="yes"/>
      <point x="203" y="69"/>
      <point x="179" y="113"/>
      <point x="179" y="184" type="curve" smooth="yes"/>
      <point x="179" y="296"/>
      <point x="235" y="439"/>
      <point x="350" y="439" type="curve" smooth="yes"/>
      <point x="407" y="439"/>
      <point x="434" y="422"/>
      <point x="460" y="395" type="curve"/>
      <point x="460" y="395"/>
      <point x="544" y="471"/>
      <point x="544" y="471" type="curve"/>
      <point x="480" y="491"/>
      <point x="436" y="524"/>
      <point x="350" y="524" type="curve" smooth="yes"/>
      <point x="184" y="524"/>
      <point x="83" y="354"/>
      <point x="83" y="184" type="curve" smooth="yes"/>
      <point x="83" y="63"/>
      <point x="145" y="-12"/>
      <point x="239" y="-12" type="curve" smooth="yes"/>
      <point x="364" y="-12"/>
      <point x="441" y="118"/>
      <point x="478" y="269" type="curve"/>
    </contour>
    <contour>
      <point x="460.0" y="489.0" type="line"/>
      <point x="387.0" y="113.0" type="line"/>
      <point x="413.0" y="133.0" type="line"/>
      <point x="428.0" y="127.0" type="line"/>
      <point x="406.0" y="80.0"/>
      <point x="402.0" y="39.0"/>
      <point x="405.0" y="0.0" type="curve"/>
      <point x="502.0" y="0.0" type="line"/>
      <point x="502.0" y="70.0"/>
      <point x="477.0" y="79.0"/>
      <point x="522.0" y="309.0" type="curve" smooth="yes"/>
      <point x="553.0" y="468.0" type="line"/>
      <point x="544" y="471" type="line"/>
    </contour>
  </outline>
</glyph>
<glyph name="c" format="1">
  <advance width="475"/>
  <unicode hex="0063"/>
  <outline>
    <contour>
      <point x="365.0" y="524.0" type="curve" smooth="yes"/>
      <point x="206" y="524"/>
      <point x="94.0" y="369.0"/>
      <point x="94.0" y="204.0" type="curve" smooth="yes"/>
      <point x="94.0" y="47.0"/>
      <point x="199.0" y="-11.0"/>
      <point x="290.0" y="-12.0" type="curve" smooth="yes"/>
      <point x="360.0" y="-13.0"/>
      <point x="426.0" y="16.0"/>
      <point x="458.0" y="42.0" type="curve"/>
      <point x="461.0" y="45.0" type="line"/>
      <point x="442.0" y="124.0" type="line"/>
      <point x="394.0" y="89.0"/>
      <point x="351.0" y="69.0"/>
      <point x="295.0" y="69.0" type="curve" smooth="yes"/>
      <point x="225.0" y="69.0"/>
      <point x="191.0" y="125.0"/>
      <point x="191.0" y="204.0" type="curve" smooth="yes"/>
      <point x="191.0" y="316.0"/>
      <point x="247.0" y="439.0"/>
      <point x="363.0" y="439.0" type="curve" smooth="yes"/>
      <point x="421.0" y="439.0"/>
      <point x="438.0" y="422.0"/>
      <point x="493.0" y="400.0" type="curve"/>
      <point x="510.0" y="480.0" type="line"/>
      <point x="459" y="517"/>
      <point x="408" y="524"/>
    </contour>
  </outline>
</glyph>
<glyph name="g" format="1">
  <advance width="535"/>
  <unicode hex="0067"/>
  <outline>
    <contour>
      <point x="426" y="288" type="line"/>
      <point x="399" y="136"/>
      <point x="336" y="69"/>
      <point x="256" y="69" type="curve" smooth="yes"/>
      <point x="203" y="69"/>
      <point x="179" y="113"/>
      <point x="179" y="184" type="curve" smooth="yes"/>
      <point x="179" y="296"/>
      <point x="235" y="439"/>
      <point x="350" y="439" type="curve" smooth="yes"/>
      <point x="407" y="439"/>
      <point x="434" y="422"/>
      <point x="460" y="395" type="curve"/>
      <point x="460" y="395"/>
      <point x="544" y="471"/>
      <point x="544" y="471" type="curve"/>
      <point x="480" y="491"/>
      <point x="436" y="524"/>
      <point x="350" y="524" type="curve" smooth="yes"/>
      <point x="184" y="524"/>
      <point x="83" y="354"/>
      <point x="83" y="184" type="curve" smooth="yes"/>
      <point x="83" y="63"/>
      <point x="145" y="-12"/>
      <point x="239" y="-12" type="curve" smooth="yes"/>
      <point x="364" y="-12"/>
      <point x="441" y="118"/>
      <point x="478" y="269" type="curve"/>
    </contour>
    <contour>
      <point x="359" y="-237"/>
      <point x="429" y="-167"/>
      <point x="459.0" y="-15.0" type="curve" smooth="yes"/>
      <point x="553" y="468" type="line"/>
      <point x="544" y="471" type="line"/>
      <point x="455.0" y="463.0" type="line"/>
      <point x="365.0" y="0.0" type="line" smooth="yes"/>
      <point x="345.0" y="-104.0"/>
      <point x="322" y="-155"/>
      <point x="216.0" y="-155.0" type="curve" smooth="yes"/>
      <point x="160" y="-155"/>
      <point x="114" y="-139"/>
      <point x="65" y="-108" type="curve"/>
      <point x="43" y="-197" type="line"/>
      <point x="83" y="-226"/>
      <point x="152" y="-237"/>
      <point x="213.0" y="-237.0" type="curve" smooth="yes"/>
    </contour>
  </outline>
</glyph>
<glyph name="h" format="1">
  <advance width="545"/>
  <unicode hex="0068"/>
  <outline>
    <contour>
      <point x="214" y="306" type="curve"/>
      <point x="285" y="403"/>
      <point x="341" y="439"/>
      <point x="390" y="439" type="curve" smooth="yes"/>
      <point x="437" y="439"/>
      <point x="448" y="406"/>
      <point x="448" y="372" type="curve" smooth="yes"/>
      <point x="448" y="337"/>
      <point x="435" y="291"/>
      <point x="425" y="242" type="curve" smooth="yes"/>
      <point x="378" y="0" type="line"/>
      <point x="475" y="0" type="line"/>
      <point x="515" y="206" type="line" smooth="yes"/>
      <point x="529" y="278"/>
      <point x="548" y="341"/>
      <point x="548" y="390" type="curve" smooth="yes"/>
      <point x="548" y="477"/>
      <point x="501" y="525"/>
      <point x="422" y="524" type="curve" smooth="yes"/>
      <point x="332" y="523"/>
      <point x="255" y="466"/>
      <point x="198" y="371" type="curve"/>
      <point x="198" y="298" type="line"/>
      <point x="198" y="298"/>
      <point x="214" y="306"/>
    </contour>
    <contour>
      <point x="170" y="0" type="line"/>
      <point x="311" y="725" type="line"/>
      <point x="214" y="725" type="line"/>
      <point x="73" y="0" type="line"/>
    </contour>
  </outline>
</glyph>
<glyph name="k" format="1">
  <advance width="494.0"/>
  <unicode hex="006B"/>
  <outline>
    <contour>
      <point x="170" y="0" type="line"/>
      <point x="170" y="0"/>
      <point x="311" y="725"/>
      <point x="311" y="725" type="curve"/>
      <point x="214" y="725" type="line"/>
      <point x="214" y="725"/>
      <point x="73" y="0"/>
      <point x="73" y="0" type="curve"/>
    </contour>
    <contour>
      <point x="397" y="0" type="line"/>
      <point x="508" y="0" type="line"/>
      <point x="308" y="289" type="line"/>
      <point x="298" y="235" type="line"/>
      <point x="378" y="313"/>
      <point x="466" y="398"/>
      <point x="562" y="512" type="curve"/>
      <point x="440" y="512" type="line"/>
      <point x="376" y="435"/>
      <point x="289" y="348"/>
      <point x="207" y="264" type="curve"/>
    </contour>
  </outline>
</glyph>
<glyph name="l" format="1">
  <advance width="284"/>
  <unicode hex="006C"/>
  <outline>
    <contour>
      <point x="212" y="725" type="line"/>
      <point x="120" y="252" type="line"/>
      <point x="120" y="252"/>
      <point x="216" y="247"/>
      <point x="216" y="247" type="curve"/>
      <point x="309" y="725" type="line"/>
    </contour>
    <contour>
      <point x="312.0" y="84.0" type="line"/>
      <point x="288.0" y="75.0"/>
      <point x="260.0" y="70.0"/>
      <point x="239.0" y="70.0" type="curve" smooth="yes"/>
      <point x="215.0" y="70.0"/>
      <point x="193.0" y="81.0"/>
      <point x="193.0" y="116.0" type="curve" smooth="yes"/>
      <point x="193.0" y="144.0"/>
      <point x="207.0" y="203.0"/>
      <point x="215.0" y="242.0" type="curve" smooth="yes"/>
      <point x="224.0" y="288.0" type="line"/>
      <point x="127.0" y="288.0" type="line"/>
      <point x="113.0" y="216.0" type="line" smooth="yes"/>
      <point x="104.0" y="169.0"/>
      <point x="94.0" y="126.0"/>
      <point x="94.0" y="92.0" type="curve"/>
      <point x="94.0" y="33.0"/>
      <point x="138.0" y="-6.0"/>
      <point x="203.0" y="-6.0" type="curve" smooth="yes"/>
      <point x="247.0" y="-6.0"/>
      <point x="280.0" y="3.0"/>
      <point x="302.0" y="12.0" type="curve"/>
    </contour>
  </outline>
</glyph>
<glyph name="m" format="1">
  <advance width="799"/>
  <unicode hex="006D"/>
  <outline>
    <contour>
      <point x="172" y="0" type="line"/>
      <point x="247" y="386" type="line"/>
      <point x="223" y="386" type="line"/>
      <point x="220" y="394" type="line"/>
      <point x="237" y="447"/>
      <point x="242" y="476"/>
      <point x="242" y="512" type="curve"/>
      <point x="142" y="512" type="line"/>
      <point x="145" y="459"/>
      <point x="155" y="410"/>
      <point x="137" y="319" type="curve" smooth="yes"/>
      <point x="75" y="0" type="line"/>
    </contour>
    <contour>
      <point x="472" y="292" type="curve"/>
      <point x="530" y="347"/>
      <point x="590" y="439"/>
      <point x="654" y="439" type="curve" smooth="yes"/>
      <point x="701" y="439"/>
      <point x="712" y="406"/>
      <point x="712" y="372" type="curve" smooth="yes"/>
      <point x="712" y="337"/>
      <point x="699" y="291"/>
      <point x="689" y="242" type="curve" smooth="yes"/>
      <point x="642" y="0" type="line"/>
      <point x="739" y="0" type="line"/>
      <point x="779" y="206" type="line" smooth="yes"/>
      <point x="793" y="278"/>
      <point x="812" y="341"/>
      <point x="812" y="390" type="curve" smooth="yes"/>
      <point x="812" y="477"/>
      <point x="765" y="524"/>
      <point x="686" y="524" type="curve" smooth="yes"/>
      <point x="601" y="524"/>
      <point x="532" y="441"/>
      <point x="477" y="387" type="curve"/>
      <point x="456" y="284" type="line"/>
      <point x="456" y="284"/>
      <point x="472" y="292"/>
    </contour>
    <contour>
      <point x="188" y="292" type="curve"/>
      <point x="246" y="347"/>
      <point x="306" y="439"/>
      <point x="370" y="439" type="curve" smooth="yes"/>
      <point x="417" y="439"/>
      <point x="428" y="406"/>
      <point x="428" y="372" type="curve" smooth="yes"/>
      <point x="428" y="337"/>
      <point x="415" y="291"/>
      <point x="405" y="242" type="curve" smooth="yes"/>
      <point x="358" y="0" type="line"/>
      <point x="455" y="0" type="line"/>
      <point x="495" y="206" type="line" smooth="yes"/>
      <point x="509" y="278"/>
      <point x="528" y="341"/>
      <point x="528" y="390" type="curve" smooth="yes"/>
      <point x="528" y="477"/>
      <point x="481" y="524"/>
      <point x="402" y="524" type="curve" smooth="yes"/>
      <point x="317" y="524"/>
      <point x="248" y="441"/>
      <point x="193" y="387" type="curve"/>
      <point x="172" y="284" type="line"/>
      <point x="172" y="284"/>
      <point x="188" y="292"/>
    </contour>
  </outline>
</glyph>
<glyph name="n" format="1">
  <advance width="547"/>
  <unicode hex="006E"/>
  <outline>
    <contour>
      <point x="172" y="0" type="line"/>
      <point x="247" y="386" type="line"/>
      <point x="223" y="386" type="line"/>
      <point x="220" y="394" type="line"/>
      <point x="237" y="447"/>
      <point x="242" y="476"/>
      <point x="242" y="512" type="curve"/>
      <point x="142" y="512" type="line"/>
      <point x="145" y="459"/>
      <point x="155" y="410"/>
      <point x="137" y="319" type="curve" smooth="yes"/>
      <point x="75" y="0" type="line"/>
    </contour>
    <contour>
      <point x="216" y="306" type="curve"/>
      <point x="287" y="403"/>
      <point x="343" y="439"/>
      <point x="392" y="439" type="curve" smooth="yes"/>
      <point x="439" y="439"/>
      <point x="450" y="406"/>
      <point x="450" y="372" type="curve" smooth="yes"/>
      <point x="450" y="337"/>
      <point x="437" y="291"/>
      <point x="427" y="242" type="curve" smooth="yes"/>
      <point x="380" y="0" type="line"/>
      <point x="477" y="0" type="line"/>
      <point x="517" y="206" type="line" smooth="yes"/>
      <point x="531" y="278"/>
      <point x="550" y="341"/>
      <point x="550" y="390" type="curve" smooth="yes"/>
      <point x="550" y="477"/>
      <point x="503" y="525"/>
      <point x="424" y="524" type="curve" smooth="yes"/>
      <point x="334" y="523"/>
      <point x="257" y="466"/>
      <point x="200" y="371" type="curve"/>
      <point x="200" y="298" type="line"/>
      <point x="200" y="298"/>
      <point x="216" y="306"/>
    </contour>
  </outline>
</glyph>
<glyph name="o" format="1">
  <advance width="522"/>
  <unicode hex="006F"/>
  <outline>
    <contour>
      <point x="238" y="439"/>
      <point x="183" y="336"/>
      <point x="183" y="211" type="curve" smooth="yes"/>
      <point x="183" y="133"/>
      <point x="207" y="69"/>
      <point x="270" y="69" type="curve"/>
      <point x="366" y="69"/>
      <point x="434" y="180"/>
      <point x="434" y="332" type="curve" smooth="yes"/>
      <point x="434" y="405"/>
      <point x="406" y="439"/>
      <point x="344" y="439" type="curve"/>
    </contour>
    <contour>
      <point x="163" y="-12"/>
      <point x="90" y="65"/>
      <point x="90" y="195" type="curve" smooth="yes"/>
      <point x="90" y="402"/>
      <point x="191" y="524"/>
      <point x="359" y="524" type="curve" smooth="yes"/>
      <point x="472" y="524"/>
      <point x="534" y="439"/>
      <point x="534" y="323" type="curve" smooth="yes"/>
      <point x="534" y="129"/>
      <point x="417" y="-12"/>
      <point x="262" y="-12" type="curve"/>
    </contour>
  </outline>
</glyph>
<glyph name="u" format="1">
  <advance width="537"/>
  <unicode hex="0075"/>
  <outline>
    <contour>
      <point x="463" y="512" type="line"/>
      <point x="389" y="126" type="line"/>
      <point x="421" y="129" type="line"/>
      <point x="406" y="83"/>
      <point x="399" y="46"/>
      <point x="403" y="0" type="curve"/>
      <point x="497" y="0" type="line"/>
      <point x="488" y="71"/>
      <point x="489" y="146"/>
      <point x="506" y="234" type="curve" smooth="yes"/>
      <point x="560" y="512" type="line"/>
    </contour>
    <contour>
      <point x="418" y="209" type="curve"/>
      <point x="348" y="114"/>
      <point x="295" y="73"/>
      <point x="247" y="73" type="curve" smooth="yes"/>
      <point x="203" y="73"/>
      <point x="193" y="106"/>
      <point x="193" y="140" type="curve" smooth="yes"/>
      <point x="193" y="175"/>
      <point x="207" y="222"/>
      <point x="217" y="271" type="curve" smooth="yes"/>
      <point x="264" y="512" type="line"/>
      <point x="167" y="512" type="line"/>
      <point x="127" y="307" type="line" smooth="yes"/>
      <point x="113" y="235"/>
      <point x="93" y="171"/>
      <point x="93" y="122" type="curve" smooth="yes"/>
      <point x="93" y="36"/>
      <point x="139" y="-12"/>
      <point x="215" y="-12" type="curve" smooth="yes"/>
      <point x="303" y="-12"/>
      <point x="378" y="51"/>
      <point x="434" y="144" type="curve"/>
      <point x="434" y="217" type="line"/>
      <point x="434" y="217"/>
      <point x="418" y="209"/>
    </contour>
  </outline>
</glyph>
<glyph name="v" format="1">
  <advance width="480"/>
  <unicode hex="0076"/>
  <outline>
    <contour>
      <point x="180" y="0" type="line"/>
      <point x="322" y="0" type="line" smooth="yes"/>
      <point x="574" y="512" type="line"/>
      <point x="460" y="512" type="line"/>
      <point x="233" y="16" type="line"/>
      <point x="264" y="16" type="line"/>
      <point x="200" y="512" type="line"/>
      <point x="97" y="512" type="line"/>
    </contour>
  </outline>
</glyph>
<glyph name="y" format="1">
  <advance width="499"/>
  <unicode hex="0079"/>
  <outline>
    <contour>
      <point x="180.0" y="0.0" type="line"/>
      <point x="224.0" y="0.0" type="line"/>
      <point x="179.0" y="-94.0" type="line" smooth="yes"/>
      <point x="161.0" y="-131.0"/>
      <point x="118.0" y="-155.0"/>
      <point x="59.0" y="-155.0" type="curve"/>
      <point x="37.0" y="-155.0"/>
      <point x="23" y="-153"/>
      <point x="2" y="-147" type="curve"/>
      <point x="-17" y="-229" type="line"/>
      <point x="-1" y="-233"/>
      <point x="27.0" y="-237.0"/>
      <point x="55.0" y="-237.0" type="curve"/>
      <point x="159" y="-237"/>
      <point x="222" y="-210"/>
      <point x="274" y="-101" type="curve" smooth="yes"/>
      <point x="322.0" y="-0.0" type="line"/>
      <point x="574.0" y="512.0" type="line"/>
      <point x="460.0" y="512.0" type="line"/>
      <point x="233.0" y="16.0" type="line"/>
      <point x="264.0" y="16.0" type="line"/>
      <point x="200.0" y="512.0" type="line"/>
      <point x="97.0" y="512.0" type="line"/>
    </contour>
  </outline>
</glyph>
<glyph name="z" format="1">
  <advance width="432"/>
  <unicode hex="007A"/>
  <outline>
    <contour>
      <point x="115" y="512" type="line"/>
      <point x="99" y="430" type="line"/>
      <point x="384" y="430" type="line"/>
      <point x="385" y="440" type="line"/>
      <point x="57" y="112" type="line"/>
      <point x="35" y="0" type="line"/>
      <point x="395" y="0" type="line"/>
      <point x="408" y="82" type="line"/>
      <point x="107" y="82" type="line"/>
      <point x="129" y="72" type="line"/>
      <point x="457" y="400" type="line"/>
      <point x="479" y="512" type="line"/>
    </contour>
  </outline>
</glyph>
